<svg id="visual" viewBox="0 0 1920 1080" width="1920" height="1080" xmlns="http://www.w3.org/2000/svg" xmlns:xlink="http://www.w3.org/1999/xlink" version="1.1"><rect x="0" y="0" width="1920" height="1080" fill="#3386b0"></rect><path d="M0 712L35.5 708.5C71 705 142 698 213.2 695C284.3 692 355.7 693 426.8 695C498 697 569 700 640 691.5C711 683 782 663 853.2 646.8C924.3 630.7 995.7 618.3 1066.8 629.5C1138 640.7 1209 675.3 1280 685.5C1351 695.7 1422 681.3 1493.2 673.8C1564.3 666.3 1635.7 665.7 1706.8 673.2C1778 680.7 1849 696.3 1884.5 704.2L1920 712L1920 1081L1884.5 1081C1849 1081 1778 1081 1706.8 1081C1635.7 1081 1564.3 1081 1493.2 1081C1422 1081 1351 1081 1280 1081C1209 1081 1138 1081 1066.8 1081C995.7 1081 924.3 1081 853.2 1081C782 1081 711 1081 640 1081C569 1081 498 1081 426.8 1081C355.7 1081 284.3 1081 213.2 1081C142 1081 71 1081 35.5 1081L0 1081Z" fill="#ebc38f"></path><path d="M0 725L35.5 724.7C71 724.3 142 723.7 213.2 716.2C284.3 708.7 355.7 694.3 426.8 702.5C498 710.7 569 741.3 640 743.3C711 745.3 782 718.7 853.2 717.2C924.3 715.7 995.7 739.3 1066.8 751.5C1138 763.7 1209 764.3 1280 759.5C1351 754.7 1422 744.3 1493.2 746C1564.3 747.7 1635.7 761.3 1706.8 764.7C1778 768 1849 761 1884.5 757.5L1920 754L1920 1081L1884.5 1081C1849 1081 1778 1081 1706.8 1081C1635.7 1081 1564.3 1081 1493.2 1081C1422 1081 1351 1081 1280 1081C1209 1081 1138 1081 1066.8 1081C995.7 1081 924.3 1081 853.2 1081C782 1081 711 1081 640 1081C569 1081 498 1081 426.8 1081C355.7 1081 284.3 1081 213.2 1081C142 1081 71 1081 35.5 1081L0 1081Z" fill="#e3af71"></path><path d="M0 811L35.5 814C71 817 142 823 213.2 824.3C284.3 825.7 355.7 822.3 426.8 819.3C498 816.3 569 813.7 640 807.2C711 800.7 782 790.3 853.2 783.5C924.3 776.7 995.7 773.3 1066.8 770.7C1138 768 1209 766 1280 773.7C1351 781.3 1422 798.7 1493.2 807.5C1564.3 816.3 1635.7 816.7 1706.8 817.5C1778 818.3 1849 819.7 1884.5 820.3L1920 821L1920 1081L1884.5 1081C1849 1081 1778 1081 1706.8 1081C1635.7 1081 1564.3 1081 1493.2 1081C1422 1081 1351 1081 1280 1081C1209 1081 1138 1081 1066.8 1081C995.7 1081 924.3 1081 853.2 1081C782 1081 711 1081 640 1081C569 1081 498 1081 426.8 1081C355.7 1081 284.3 1081 213.2 1081C142 1081 71 1081 35.5 1081L0 1081Z" fill="#da9b55"></path><path d="M0 858L35.5 858.8C71 859.7 142 861.3 213.2 869C284.3 876.7 355.7 890.3 426.8 899.3C498 908.3 569 912.7 640 909.7C711 906.7 782 896.3 853.2 889.8C924.3 883.3 995.7 880.7 1066.8 884.3C1138 888 1209 898 1280 902.7C1351 907.3 1422 906.7 1493.2 904.3C1564.3 902 1635.7 898 1706.8 891.7C1778 885.3 1849 876.7 1884.5 872.3L1920 868L1920 1081L1884.5 1081C1849 1081 1778 1081 1706.8 1081C1635.7 1081 1564.3 1081 1493.2 1081C1422 1081 1351 1081 1280 1081C1209 1081 1138 1081 1066.8 1081C995.7 1081 924.3 1081 853.2 1081C782 1081 711 1081 640 1081C569 1081 498 1081 426.8 1081C355.7 1081 284.3 1081 213.2 1081C142 1081 71 1081 35.5 1081L0 1081Z" fill="#d28739"></path><path d="M0 945L35.5 952.7C71 960.3 142 975.7 213.2 975.5C284.3 975.3 355.7 959.7 426.8 952.7C498 945.7 569 947.3 640 948.8C711 950.3 782 951.7 853.2 952.7C924.3 953.7 995.7 954.3 1066.8 962C1138 969.7 1209 984.3 1280 984.5C1351 984.7 1422 970.3 1493.2 969.8C1564.3 969.3 1635.7 982.7 1706.8 986.3C1778 990 1849 984 1884.5 981L1920 978L1920 1081L1884.5 1081C1849 1081 1778 1081 1706.8 1081C1635.7 1081 1564.3 1081 1493.2 1081C1422 1081 1351 1081 1280 1081C1209 1081 1138 1081 1066.8 1081C995.7 1081 924.3 1081 853.2 1081C782 1081 711 1081 640 1081C569 1081 498 1081 426.8 1081C355.7 1081 284.3 1081 213.2 1081C142 1081 71 1081 35.5 1081L0 1081Z" fill="#c9721b"></path></svg>