<svg id="visual" viewBox="0 0 1920 1080" width="1920" height="1080" xmlns="http://www.w3.org/2000/svg" xmlns:xlink="http://www.w3.org/1999/xlink" version="1.1"><rect x="0" y="0" width="1920" height="1080" fill="#001220"></rect><path d="M0 503L45.7 527.5C91.3 552 182.7 601 274.2 618.8C365.7 636.7 457.3 623.3 548.8 610.7C640.3 598 731.7 586 823 585.5C914.3 585 1005.7 596 1097 589.8C1188.3 583.7 1279.7 560.3 1371.2 569.2C1462.7 578 1554.3 619 1645.8 619.8C1737.3 620.7 1828.7 581.3 1874.3 561.7L1920 542L1920 1081L1874.3 1081C1828.7 1081 1737.3 1081 1645.8 1081C1554.3 1081 1462.7 1081 1371.2 1081C1279.7 1081 1188.3 1081 1097 1081C1005.7 1081 914.3 1081 823 1081C731.7 1081 640.3 1081 548.8 1081C457.3 1081 365.7 1081 274.2 1081C182.7 1081 91.3 1081 45.7 1081L0 1081Z" fill="#fa7268"></path><path d="M0 597L45.7 591C91.3 585 182.7 573 274.2 583.7C365.7 594.3 457.3 627.7 548.8 658C640.3 688.3 731.7 715.7 823 699.2C914.3 682.7 1005.7 622.3 1097 612.5C1188.3 602.7 1279.7 643.3 1371.2 667.2C1462.7 691 1554.3 698 1645.8 683.3C1737.3 668.7 1828.7 632.3 1874.3 614.2L1920 596L1920 1081L1874.3 1081C1828.7 1081 1737.3 1081 1645.8 1081C1554.3 1081 1462.7 1081 1371.2 1081C1279.7 1081 1188.3 1081 1097 1081C1005.7 1081 914.3 1081 823 1081C731.7 1081 640.3 1081 548.8 1081C457.3 1081 365.7 1081 274.2 1081C182.7 1081 91.3 1081 45.7 1081L0 1081Z" fill="#ef5f67"></path><path d="M0 685L45.7 695C91.3 705 182.7 725 274.2 747C365.7 769 457.3 793 548.8 784.7C640.3 776.3 731.7 735.7 823 731.8C914.3 728 1005.7 761 1097 780.8C1188.3 800.7 1279.7 807.3 1371.2 817C1462.7 826.7 1554.3 839.3 1645.8 824.2C1737.3 809 1828.7 766 1874.3 744.5L1920 723L1920 1081L1874.3 1081C1828.7 1081 1737.3 1081 1645.8 1081C1554.3 1081 1462.7 1081 1371.2 1081C1279.7 1081 1188.3 1081 1097 1081C1005.7 1081 914.3 1081 823 1081C731.7 1081 640.3 1081 548.8 1081C457.3 1081 365.7 1081 274.2 1081C182.7 1081 91.3 1081 45.7 1081L0 1081Z" fill="#e34c67"></path><path d="M0 873L45.7 879.8C91.3 886.7 182.7 900.3 274.2 885.7C365.7 871 457.3 828 548.8 815.7C640.3 803.3 731.7 821.7 823 833.3C914.3 845 1005.7 850 1097 851C1188.3 852 1279.7 849 1371.2 856.8C1462.7 864.7 1554.3 883.3 1645.8 882.3C1737.3 881.3 1828.7 860.7 1874.3 850.3L1920 840L1920 1081L1874.3 1081C1828.7 1081 1737.3 1081 1645.8 1081C1554.3 1081 1462.7 1081 1371.2 1081C1279.7 1081 1188.3 1081 1097 1081C1005.7 1081 914.3 1081 823 1081C731.7 1081 640.3 1081 548.8 1081C457.3 1081 365.7 1081 274.2 1081C182.7 1081 91.3 1081 45.7 1081L0 1081Z" fill="#d53867"></path><path d="M0 950L45.7 942.2C91.3 934.3 182.7 918.7 274.2 911.8C365.7 905 457.3 907 548.8 918C640.3 929 731.7 949 823 949C914.3 949 1005.7 929 1097 934.7C1188.3 940.3 1279.7 971.7 1371.2 982.8C1462.7 994 1554.3 985 1645.8 979.8C1737.3 974.7 1828.7 973.3 1874.3 972.7L1920 972L1920 1081L1874.3 1081C1828.7 1081 1737.3 1081 1645.8 1081C1554.3 1081 1462.7 1081 1371.2 1081C1279.7 1081 1188.3 1081 1097 1081C1005.7 1081 914.3 1081 823 1081C731.7 1081 640.3 1081 548.8 1081C457.3 1081 365.7 1081 274.2 1081C182.7 1081 91.3 1081 45.7 1081L0 1081Z" fill="#c62368"></path></svg>