<svg id="visual" viewBox="0 0 1920 1080" width="1920" height="1080" xmlns="http://www.w3.org/2000/svg" xmlns:xlink="http://www.w3.org/1999/xlink" version="1.1"><rect x="0" y="0" width="1920" height="1080" fill="#4F6F52"></rect><path d="M0 678L45.7 697.5C91.3 717 182.7 756 274.2 750.7C365.7 745.3 457.3 695.7 548.8 684.2C640.3 672.7 731.7 699.3 823 725.2C914.3 751 1005.7 776 1097 763.7C1188.3 751.3 1279.7 701.7 1371.2 681.2C1462.7 660.7 1554.3 669.3 1645.8 678.7C1737.3 688 1828.7 698 1874.3 703L1920 708L1920 1081L1874.3 1081C1828.7 1081 1737.3 1081 1645.8 1081C1554.3 1081 1462.7 1081 1371.2 1081C1279.7 1081 1188.3 1081 1097 1081C1005.7 1081 914.3 1081 823 1081C731.7 1081 640.3 1081 548.8 1081C457.3 1081 365.7 1081 274.2 1081C182.7 1081 91.3 1081 45.7 1081L0 1081Z" fill="#f0ca84"></path><path d="M0 840L45.7 820.8C91.3 801.7 182.7 763.3 274.2 765.7C365.7 768 457.3 811 548.8 809.5C640.3 808 731.7 762 823 759C914.3 756 1005.7 796 1097 798C1188.3 800 1279.7 764 1371.2 763.7C1462.7 763.3 1554.3 798.7 1645.8 799C1737.3 799.3 1828.7 764.7 1874.3 747.3L1920 730L1920 1081L1874.3 1081C1828.7 1081 1737.3 1081 1645.8 1081C1554.3 1081 1462.7 1081 1371.2 1081C1279.7 1081 1188.3 1081 1097 1081C1005.7 1081 914.3 1081 823 1081C731.7 1081 640.3 1081 548.8 1081C457.3 1081 365.7 1081 274.2 1081C182.7 1081 91.3 1081 45.7 1081L0 1081Z" fill="#f3c473"></path><path d="M0 823L45.7 824.5C91.3 826 182.7 829 274.2 824C365.7 819 457.3 806 548.8 802.8C640.3 799.7 731.7 806.3 823 826.8C914.3 847.3 1005.7 881.7 1097 877.7C1188.3 873.7 1279.7 831.3 1371.2 818.2C1462.7 805 1554.3 821 1645.8 821.7C1737.3 822.3 1828.7 807.7 1874.3 800.3L1920 793L1920 1081L1874.3 1081C1828.7 1081 1737.3 1081 1645.8 1081C1554.3 1081 1462.7 1081 1371.2 1081C1279.7 1081 1188.3 1081 1097 1081C1005.7 1081 914.3 1081 823 1081C731.7 1081 640.3 1081 548.8 1081C457.3 1081 365.7 1081 274.2 1081C182.7 1081 91.3 1081 45.7 1081L0 1081Z" fill="#f6bd61"></path><path d="M0 966L45.7 952C91.3 938 182.7 910 274.2 911.7C365.7 913.3 457.3 944.7 548.8 953.2C640.3 961.7 731.7 947.3 823 943.2C914.3 939 1005.7 945 1097 946.7C1188.3 948.3 1279.7 945.7 1371.2 932.7C1462.7 919.7 1554.3 896.3 1645.8 891.5C1737.3 886.7 1828.7 900.3 1874.3 907.2L1920 914L1920 1081L1874.3 1081C1828.7 1081 1737.3 1081 1645.8 1081C1554.3 1081 1462.7 1081 1371.2 1081C1279.7 1081 1188.3 1081 1097 1081C1005.7 1081 914.3 1081 823 1081C731.7 1081 640.3 1081 548.8 1081C457.3 1081 365.7 1081 274.2 1081C182.7 1081 91.3 1081 45.7 1081L0 1081Z" fill="#f9b64f"></path><path d="M0 966L45.7 966.2C91.3 966.3 182.7 966.7 274.2 963.7C365.7 960.7 457.3 954.3 548.8 964.7C640.3 975 731.7 1002 823 1011.7C914.3 1021.3 1005.7 1013.7 1097 1009C1188.3 1004.3 1279.7 1002.7 1371.2 992.5C1462.7 982.3 1554.3 963.7 1645.8 963.3C1737.3 963 1828.7 981 1874.3 990L1920 999L1920 1081L1874.3 1081C1828.7 1081 1737.3 1081 1645.8 1081C1554.3 1081 1462.7 1081 1371.2 1081C1279.7 1081 1188.3 1081 1097 1081C1005.7 1081 914.3 1081 823 1081C731.7 1081 640.3 1081 548.8 1081C457.3 1081 365.7 1081 274.2 1081C182.7 1081 91.3 1081 45.7 1081L0 1081Z" fill="#fcaf3c"></path></svg>