<svg id="visual" viewBox="0 0 1920 1080" width="1920" height="1080" xmlns="http://www.w3.org/2000/svg" xmlns:xlink="http://www.w3.org/1999/xlink" version="1.1"><rect x="0" y="0" width="1920" height="1080" fill="#4F6F52"></rect><path d="M0 731L45.7 729.5C91.3 728 182.7 725 274.2 727.8C365.7 730.7 457.3 739.3 548.8 718.8C640.3 698.3 731.7 648.7 823 631.5C914.3 614.3 1005.7 629.7 1097 628.3C1188.3 627 1279.7 609 1371.2 622.7C1462.7 636.3 1554.3 681.7 1645.8 693.3C1737.3 705 1828.7 683 1874.3 672L1920 661L1920 1081L1874.3 1081C1828.7 1081 1737.3 1081 1645.8 1081C1554.3 1081 1462.7 1081 1371.2 1081C1279.7 1081 1188.3 1081 1097 1081C1005.7 1081 914.3 1081 823 1081C731.7 1081 640.3 1081 548.8 1081C457.3 1081 365.7 1081 274.2 1081C182.7 1081 91.3 1081 45.7 1081L0 1081Z" fill="#e8dfca"></path><path d="M0 646L45.7 669C91.3 692 182.7 738 274.2 753.3C365.7 768.7 457.3 753.3 548.8 733.8C640.3 714.3 731.7 690.7 823 676.8C914.3 663 1005.7 659 1097 677.2C1188.3 695.3 1279.7 735.7 1371.2 758.2C1462.7 780.7 1554.3 785.3 1645.8 782.3C1737.3 779.3 1828.7 768.7 1874.3 763.3L1920 758L1920 1081L1874.3 1081C1828.7 1081 1737.3 1081 1645.8 1081C1554.3 1081 1462.7 1081 1371.2 1081C1279.7 1081 1188.3 1081 1097 1081C1005.7 1081 914.3 1081 823 1081C731.7 1081 640.3 1081 548.8 1081C457.3 1081 365.7 1081 274.2 1081C182.7 1081 91.3 1081 45.7 1081L0 1081Z" fill="#ecd5a7"></path><path d="M0 836L45.7 841.5C91.3 847 182.7 858 274.2 858.7C365.7 859.3 457.3 849.7 548.8 848.7C640.3 847.7 731.7 855.3 823 838.5C914.3 821.7 1005.7 780.3 1097 759C1188.3 737.7 1279.7 736.3 1371.2 747.3C1462.7 758.3 1554.3 781.7 1645.8 800.2C1737.3 818.7 1828.7 832.3 1874.3 839.2L1920 846L1920 1081L1874.3 1081C1828.7 1081 1737.3 1081 1645.8 1081C1554.3 1081 1462.7 1081 1371.2 1081C1279.7 1081 1188.3 1081 1097 1081C1005.7 1081 914.3 1081 823 1081C731.7 1081 640.3 1081 548.8 1081C457.3 1081 365.7 1081 274.2 1081C182.7 1081 91.3 1081 45.7 1081L0 1081Z" fill="#f0ca84"></path><path d="M0 861L45.7 870.2C91.3 879.3 182.7 897.7 274.2 896.7C365.7 895.7 457.3 875.3 548.8 865.7C640.3 856 731.7 857 823 872.7C914.3 888.3 1005.7 918.7 1097 917.7C1188.3 916.7 1279.7 884.3 1371.2 869.8C1462.7 855.3 1554.3 858.7 1645.8 858.7C1737.3 858.7 1828.7 855.3 1874.3 853.7L1920 852L1920 1081L1874.3 1081C1828.7 1081 1737.3 1081 1645.8 1081C1554.3 1081 1462.7 1081 1371.2 1081C1279.7 1081 1188.3 1081 1097 1081C1005.7 1081 914.3 1081 823 1081C731.7 1081 640.3 1081 548.8 1081C457.3 1081 365.7 1081 274.2 1081C182.7 1081 91.3 1081 45.7 1081L0 1081Z" fill="#f6bd61"></path><path d="M0 1009L45.7 1006.8C91.3 1004.7 182.7 1000.3 274.2 1002.5C365.7 1004.7 457.3 1013.3 548.8 1003.2C640.3 993 731.7 964 823 956.8C914.3 949.7 1005.7 964.3 1097 969.8C1188.3 975.3 1279.7 971.7 1371.2 968.2C1462.7 964.7 1554.3 961.3 1645.8 957.7C1737.3 954 1828.7 950 1874.3 948L1920 946L1920 1081L1874.3 1081C1828.7 1081 1737.3 1081 1645.8 1081C1554.3 1081 1462.7 1081 1371.2 1081C1279.7 1081 1188.3 1081 1097 1081C1005.7 1081 914.3 1081 823 1081C731.7 1081 640.3 1081 548.8 1081C457.3 1081 365.7 1081 274.2 1081C182.7 1081 91.3 1081 45.7 1081L0 1081Z" fill="#fcaf3c"></path></svg>