<svg xmlns="http://www.w3.org/2000/svg" version="1.1" xmlns:xlink="http://www.w3.org/1999/xlink" xmlns:svgjs="http://svgjs.dev/svgjs" width="1920" height="1080" preserveAspectRatio="none" viewBox="0 0 1920 1080"><g mask="url(&quot;#SvgjsMask1262&quot;)" fill="none"><rect width="1920" height="1080" x="0" y="0" fill="rgba(89, 126, 82, 1)"></rect><path d="M6.42 -94.69L123.34 -27.19L123.34 107.81L6.42 175.31L-110.5 107.81L-110.5 -27.19zM123.34 107.81L240.25 175.31L240.25 310.31L123.34 377.81L6.42 310.31L6.42 175.31zM6.42 310.31L123.34 377.81L123.34 512.81L6.42 580.31L-110.5 512.81L-110.5 377.81zM474.09 310.31L591 377.81L591 512.81L474.09 580.31L357.17 512.81L357.17 377.81zM591 917.81L707.92 985.31L707.92 1120.31L591 1187.81L474.09 1120.31L474.09 985.31zM707.92 715.31L824.84 782.81L824.84 917.81L707.92 985.31L591 917.81L591 782.81zM1292.5 107.81L1409.42 175.31L1409.42 310.31L1292.5 377.81L1175.59 310.31L1175.59 175.31zM1292.5 512.81L1409.42 580.31L1409.42 715.31L1292.5 782.81L1175.59 715.31L1175.59 580.31zM1292.5 917.81L1409.42 985.31L1409.42 1120.31L1292.5 1187.81L1175.59 1120.31L1175.59 985.31zM1643.25 715.31L1760.17 782.81L1760.17 917.81L1643.25 985.31L1526.34 917.81L1526.34 782.81z" stroke="rgba(235, 217, 180, 1)" stroke-width="2"></path><path d="M-7.08 -94.69 a13.5 13.5 0 1 0 27 0 a13.5 13.5 0 1 0 -27 0zM109.84 -27.19 a13.5 13.5 0 1 0 27 0 a13.5 13.5 0 1 0 -27 0zM109.84 107.81 a13.5 13.5 0 1 0 27 0 a13.5 13.5 0 1 0 -27 0zM-7.08 175.31 a13.5 13.5 0 1 0 27 0 a13.5 13.5 0 1 0 -27 0zM-124 107.81 a13.5 13.5 0 1 0 27 0 a13.5 13.5 0 1 0 -27 0zM-124 -27.19 a13.5 13.5 0 1 0 27 0 a13.5 13.5 0 1 0 -27 0zM226.75 175.31 a13.5 13.5 0 1 0 27 0 a13.5 13.5 0 1 0 -27 0zM226.75 310.31 a13.5 13.5 0 1 0 27 0 a13.5 13.5 0 1 0 -27 0zM109.84 377.81 a13.5 13.5 0 1 0 27 0 a13.5 13.5 0 1 0 -27 0zM-7.08 310.31 a13.5 13.5 0 1 0 27 0 a13.5 13.5 0 1 0 -27 0zM109.84 512.81 a13.5 13.5 0 1 0 27 0 a13.5 13.5 0 1 0 -27 0zM-7.08 580.31 a13.5 13.5 0 1 0 27 0 a13.5 13.5 0 1 0 -27 0zM-124 512.81 a13.5 13.5 0 1 0 27 0 a13.5 13.5 0 1 0 -27 0zM-124 377.81 a13.5 13.5 0 1 0 27 0 a13.5 13.5 0 1 0 -27 0zM460.59 310.31 a13.5 13.5 0 1 0 27 0 a13.5 13.5 0 1 0 -27 0zM577.5 377.81 a13.5 13.5 0 1 0 27 0 a13.5 13.5 0 1 0 -27 0zM577.5 512.81 a13.5 13.5 0 1 0 27 0 a13.5 13.5 0 1 0 -27 0zM460.59 580.31 a13.5 13.5 0 1 0 27 0 a13.5 13.5 0 1 0 -27 0zM343.67 512.81 a13.5 13.5 0 1 0 27 0 a13.5 13.5 0 1 0 -27 0zM343.67 377.81 a13.5 13.5 0 1 0 27 0 a13.5 13.5 0 1 0 -27 0zM577.5 917.81 a13.5 13.5 0 1 0 27 0 a13.5 13.5 0 1 0 -27 0zM694.42 985.31 a13.5 13.5 0 1 0 27 0 a13.5 13.5 0 1 0 -27 0zM694.42 1120.31 a13.5 13.5 0 1 0 27 0 a13.5 13.5 0 1 0 -27 0zM577.5 1187.81 a13.5 13.5 0 1 0 27 0 a13.5 13.5 0 1 0 -27 0zM460.59 1120.31 a13.5 13.5 0 1 0 27 0 a13.5 13.5 0 1 0 -27 0zM460.59 985.31 a13.5 13.5 0 1 0 27 0 a13.5 13.5 0 1 0 -27 0zM694.42 715.31 a13.5 13.5 0 1 0 27 0 a13.5 13.5 0 1 0 -27 0zM811.34 782.81 a13.5 13.5 0 1 0 27 0 a13.5 13.5 0 1 0 -27 0zM811.34 917.81 a13.5 13.5 0 1 0 27 0 a13.5 13.5 0 1 0 -27 0zM577.5 782.81 a13.5 13.5 0 1 0 27 0 a13.5 13.5 0 1 0 -27 0zM1279 107.81 a13.5 13.5 0 1 0 27 0 a13.5 13.5 0 1 0 -27 0zM1395.92 175.31 a13.5 13.5 0 1 0 27 0 a13.5 13.5 0 1 0 -27 0zM1395.92 310.31 a13.5 13.5 0 1 0 27 0 a13.5 13.5 0 1 0 -27 0zM1279 377.81 a13.5 13.5 0 1 0 27 0 a13.5 13.5 0 1 0 -27 0zM1162.09 310.31 a13.5 13.5 0 1 0 27 0 a13.5 13.5 0 1 0 -27 0zM1162.09 175.31 a13.5 13.5 0 1 0 27 0 a13.5 13.5 0 1 0 -27 0zM1279 512.81 a13.5 13.5 0 1 0 27 0 a13.5 13.5 0 1 0 -27 0zM1395.92 580.31 a13.5 13.5 0 1 0 27 0 a13.5 13.5 0 1 0 -27 0zM1395.92 715.31 a13.5 13.5 0 1 0 27 0 a13.5 13.5 0 1 0 -27 0zM1279 782.81 a13.5 13.5 0 1 0 27 0 a13.5 13.5 0 1 0 -27 0zM1162.09 715.31 a13.5 13.5 0 1 0 27 0 a13.5 13.5 0 1 0 -27 0zM1162.09 580.31 a13.5 13.5 0 1 0 27 0 a13.5 13.5 0 1 0 -27 0zM1279 917.81 a13.5 13.5 0 1 0 27 0 a13.5 13.5 0 1 0 -27 0zM1395.92 985.31 a13.5 13.5 0 1 0 27 0 a13.5 13.5 0 1 0 -27 0zM1395.92 1120.31 a13.5 13.5 0 1 0 27 0 a13.5 13.5 0 1 0 -27 0zM1279 1187.81 a13.5 13.5 0 1 0 27 0 a13.5 13.5 0 1 0 -27 0zM1162.09 1120.31 a13.5 13.5 0 1 0 27 0 a13.5 13.5 0 1 0 -27 0zM1162.09 985.31 a13.5 13.5 0 1 0 27 0 a13.5 13.5 0 1 0 -27 0zM1629.75 715.31 a13.5 13.5 0 1 0 27 0 a13.5 13.5 0 1 0 -27 0zM1746.67 782.81 a13.5 13.5 0 1 0 27 0 a13.5 13.5 0 1 0 -27 0zM1746.67 917.81 a13.5 13.5 0 1 0 27 0 a13.5 13.5 0 1 0 -27 0zM1629.75 985.31 a13.5 13.5 0 1 0 27 0 a13.5 13.5 0 1 0 -27 0zM1512.84 917.81 a13.5 13.5 0 1 0 27 0 a13.5 13.5 0 1 0 -27 0zM1512.84 782.81 a13.5 13.5 0 1 0 27 0 a13.5 13.5 0 1 0 -27 0z" fill="rgba(235, 217, 180, 1)"></path><path d="M146.73 93.9L235.94 145.4L235.94 248.4L146.73 299.9L57.53 248.4L57.53 145.4zM57.53 248.4L146.73 299.9L146.73 402.9L57.53 454.4L-31.67 402.9L-31.67 299.9zM57.53 866.4L146.73 917.9L146.73 1020.9L57.53 1072.4L-31.67 1020.9L-31.67 917.9zM235.94 -60.6L325.14 -9.1L325.14 93.9L235.94 145.4L146.73 93.9L146.73 -9.1zM235.94 557.4L325.14 608.9L325.14 711.9L235.94 763.4L146.73 711.9L146.73 608.9zM235.94 866.4L325.14 917.9L325.14 1020.9L235.94 1072.4L146.73 1020.9L146.73 917.9zM414.34 248.4L503.55 299.9L503.55 402.9L414.34 454.4L325.14 402.9L325.14 299.9zM503.55 1020.9L592.75 1072.4L592.75 1175.4L503.55 1226.9L414.34 1175.4L414.34 1072.4zM681.95 93.9L771.16 145.4L771.16 248.4L681.95 299.9L592.75 248.4L592.75 145.4zM592.75 557.4L681.95 608.9L681.95 711.9L592.75 763.4L503.55 711.9L503.55 608.9zM681.95 711.9L771.16 763.4L771.16 866.4L681.95 917.9L592.75 866.4L592.75 763.4zM681.95 1020.9L771.16 1072.4L771.16 1175.4L681.95 1226.9L592.75 1175.4L592.75 1072.4zM771.16 -60.6L860.36 -9.1L860.36 93.9L771.16 145.4L681.95 93.9L681.95 -9.1zM771.16 248.4L860.36 299.9L860.36 402.9L771.16 454.4L681.95 402.9L681.95 299.9zM860.36 402.9L949.56 454.4L949.56 557.4L860.36 608.9L771.16 557.4L771.16 454.4zM771.16 557.4L860.36 608.9L860.36 711.9L771.16 763.4L681.95 711.9L681.95 608.9zM1038.76 402.9L1127.97 454.4L1127.97 557.4L1038.76 608.9L949.56 557.4L949.56 454.4zM1038.76 711.9L1127.97 763.4L1127.97 866.4L1038.76 917.9L949.56 866.4L949.56 763.4zM1038.76 1020.9L1127.97 1072.4L1127.97 1175.4L1038.76 1226.9L949.56 1175.4L949.56 1072.4zM1217.17 402.9L1306.37 454.4L1306.37 557.4L1217.17 608.9L1127.97 557.4L1127.97 454.4zM1127.97 557.4L1217.17 608.9L1217.17 711.9L1127.97 763.4L1038.76 711.9L1038.76 608.9zM1217.17 711.9L1306.37 763.4L1306.37 866.4L1217.17 917.9L1127.97 866.4L1127.97 763.4zM1127.97 866.4L1217.17 917.9L1217.17 1020.9L1127.97 1072.4L1038.76 1020.9L1038.76 917.9zM1395.58 402.9L1484.78 454.4L1484.78 557.4L1395.58 608.9L1306.37 557.4L1306.37 454.4zM1306.37 557.4L1395.58 608.9L1395.58 711.9L1306.37 763.4L1217.17 711.9L1217.17 608.9zM1484.78 248.4L1573.98 299.9L1573.98 402.9L1484.78 454.4L1395.58 402.9L1395.58 299.9zM1573.98 402.9L1663.19 454.4L1663.19 557.4L1573.98 608.9L1484.78 557.4L1484.78 454.4zM1573.98 711.9L1663.19 763.4L1663.19 866.4L1573.98 917.9L1484.78 866.4L1484.78 763.4zM1752.39 93.9L1841.59 145.4L1841.59 248.4L1752.39 299.9L1663.19 248.4L1663.19 145.4zM1663.19 557.4L1752.39 608.9L1752.39 711.9L1663.19 763.4L1573.98 711.9L1573.98 608.9zM1930.8 711.9L2020 763.4L2020 866.4L1930.8 917.9L1841.59 866.4L1841.59 763.4z" stroke="rgba(225, 168, 56, 1)" stroke-width="2"></path></g><defs><mask id="SvgjsMask1262"><rect width="1920" height="1080" fill="#ffffff"></rect></mask></defs></svg>